<?xml version="1.0" standalone="no" ?>
  <!DOCTYPE svg PUBLIC "-//W3C//DTD SVG 1.1//EN"
    "http://www.w3.org/Graphics/SVG/1.1/DTD/svg11.dtd">
  <svg width="100%" height="111em" xmlns="http://www.w3.org/2000/svg" xmlns:xlink="http://www.w3.org/1999/xlink" font-family="monospace" text-anchor="middle">
    <g>
      <rect height="111em" width="25%" x="25%" fill="#f8f9fa" />
      <rect height="111em" width="25%" x="50%" fill="#1f2430" />
      <rect height="111em" width="25%" x="75%" fill="#0d1017" />
    </g>
    <g font-weight="bold">
      <text font-family="sans-serif" font-size="13" y="3em" x="12.5%" fill="#333333">Path</text>
      <text font-family="sans-serif" font-size="13" y="3em" x="37.5%" fill="#8a9199">Light</text>
      <text font-family="sans-serif" font-size="13" y="3em" x="62.5%" fill="#707a8c">Mirage</text>
      <text font-family="sans-serif" font-size="13" y="3em" x="87.5%" fill="#565b66">Dark</text>
    </g>

    
			<g>
				<rect height="1.8em" width="20%" x="27.5%" y="4.8em" rx="2" ry="2" fill="#55b4d4" />
				<rect height="1.8em" width="20%" x="52.5%" y="4.8em" rx="2" ry="2" fill="#5ccfe6" />
				<rect height="1.8em" width="20%" x="77.5%" y="4.8em" rx="2" ry="2" fill="#39bae6" />
			</g>

			<g font-family="sans-serif" font-size="12">
				<text y="6.5em" x="12.5%" fill="333333">syntax.tag</text>
				<text y="6.5em" x="37.5%" fill="#000000">#55B4D4</text>
				<text y="6.5em" x="62.5%" fill="#000000">#5CCFE6</text>
				<text y="6.5em" x="87.5%" fill="#000000">#39BAE6</text>
			</g>
		
			<g>
				<rect height="1.8em" width="20%" x="27.5%" y="7.8em" rx="2" ry="2" fill="#f2ae49" />
				<rect height="1.8em" width="20%" x="52.5%" y="7.8em" rx="2" ry="2" fill="#ffd173" />
				<rect height="1.8em" width="20%" x="77.5%" y="7.8em" rx="2" ry="2" fill="#ffb454" />
			</g>

			<g font-family="sans-serif" font-size="12">
				<text y="9.75em" x="12.5%" fill="333333">syntax.func</text>
				<text y="9.75em" x="37.5%" fill="#000000">#F2AE49</text>
				<text y="9.75em" x="62.5%" fill="#000000">#FFD173</text>
				<text y="9.75em" x="87.5%" fill="#000000">#FFB454</text>
			</g>
		
			<g>
				<rect height="1.8em" width="20%" x="27.5%" y="10.8em" rx="2" ry="2" fill="#22a4e6" />
				<rect height="1.8em" width="20%" x="52.5%" y="10.8em" rx="2" ry="2" fill="#73d0ff" />
				<rect height="1.8em" width="20%" x="77.5%" y="10.8em" rx="2" ry="2" fill="#59c2ff" />
			</g>

			<g font-family="sans-serif" font-size="12">
				<text y="13em" x="12.5%" fill="333333">syntax.entity</text>
				<text y="13em" x="37.5%" fill="#000000">#22A4E6</text>
				<text y="13em" x="62.5%" fill="#000000">#73D0FF</text>
				<text y="13em" x="87.5%" fill="#000000">#59C2FF</text>
			</g>
		
			<g>
				<rect height="1.8em" width="20%" x="27.5%" y="13.8em" rx="2" ry="2" fill="#86b300" />
				<rect height="1.8em" width="20%" x="52.5%" y="13.8em" rx="2" ry="2" fill="#d5ff80" />
				<rect height="1.8em" width="20%" x="77.5%" y="13.8em" rx="2" ry="2" fill="#aad94c" />
			</g>

			<g font-family="sans-serif" font-size="12">
				<text y="16.25em" x="12.5%" fill="333333">syntax.string</text>
				<text y="16.25em" x="37.5%" fill="#000000">#86B300</text>
				<text y="16.25em" x="62.5%" fill="#000000">#D5FF80</text>
				<text y="16.25em" x="87.5%" fill="#000000">#AAD94C</text>
			</g>
		
			<g>
				<rect height="1.8em" width="20%" x="27.5%" y="16.8em" rx="2" ry="2" fill="#4cbf99" />
				<rect height="1.8em" width="20%" x="52.5%" y="16.8em" rx="2" ry="2" fill="#95e6cb" />
				<rect height="1.8em" width="20%" x="77.5%" y="16.8em" rx="2" ry="2" fill="#95e6cb" />
			</g>

			<g font-family="sans-serif" font-size="12">
				<text y="19.5em" x="12.5%" fill="333333">syntax.regexp</text>
				<text y="19.5em" x="37.5%" fill="#000000">#4CBF99</text>
				<text y="19.5em" x="62.5%" fill="#000000">#95E6CB</text>
				<text y="19.5em" x="87.5%" fill="#000000">#95E6CB</text>
			</g>
		
			<g>
				<rect height="1.8em" width="20%" x="27.5%" y="19.8em" rx="2" ry="2" fill="#f07171" />
				<rect height="1.8em" width="20%" x="52.5%" y="19.8em" rx="2" ry="2" fill="#f28779" />
				<rect height="1.8em" width="20%" x="77.5%" y="19.8em" rx="2" ry="2" fill="#f07178" />
			</g>

			<g font-family="sans-serif" font-size="12">
				<text y="22.75em" x="12.5%" fill="333333">syntax.markup</text>
				<text y="22.75em" x="37.5%" fill="#000000">#F07171</text>
				<text y="22.75em" x="62.5%" fill="#000000">#F28779</text>
				<text y="22.75em" x="87.5%" fill="#000000">#F07178</text>
			</g>
		
			<g>
				<rect height="1.8em" width="20%" x="27.5%" y="22.8em" rx="2" ry="2" fill="#fa8d3e" />
				<rect height="1.8em" width="20%" x="52.5%" y="22.8em" rx="2" ry="2" fill="#ffad66" />
				<rect height="1.8em" width="20%" x="77.5%" y="22.8em" rx="2" ry="2" fill="#ff8f40" />
			</g>

			<g font-family="sans-serif" font-size="12">
				<text y="26em" x="12.5%" fill="333333">syntax.keyword</text>
				<text y="26em" x="37.5%" fill="#000000">#FA8D3E</text>
				<text y="26em" x="62.5%" fill="#000000">#FFAD66</text>
				<text y="26em" x="87.5%" fill="#000000">#FF8F40</text>
			</g>
		
			<g>
				<rect height="1.8em" width="20%" x="27.5%" y="25.8em" rx="2" ry="2" fill="#e6b673" />
				<rect height="1.8em" width="20%" x="52.5%" y="25.8em" rx="2" ry="2" fill="#ffdfb3" />
				<rect height="1.8em" width="20%" x="77.5%" y="25.8em" rx="2" ry="2" fill="#e6b673" />
			</g>

			<g font-family="sans-serif" font-size="12">
				<text y="29.25em" x="12.5%" fill="333333">syntax.special</text>
				<text y="29.25em" x="37.5%" fill="#000000">#E6B673</text>
				<text y="29.25em" x="62.5%" fill="#000000">#FFDFB3</text>
				<text y="29.25em" x="87.5%" fill="#000000">#E6B673</text>
			</g>
		
			<g>
				<rect height="1.8em" width="20%" x="27.5%" y="28.8em" rx="2" ry="2" fill="#787b8099" />
				<rect height="1.8em" width="20%" x="52.5%" y="28.8em" rx="2" ry="2" fill="#b8cfe680" />
				<rect height="1.8em" width="20%" x="77.5%" y="28.8em" rx="2" ry="2" fill="#acb6bf8c" />
			</g>

			<g font-family="sans-serif" font-size="12">
				<text y="32.5em" x="12.5%" fill="333333">syntax.comment</text>
				<text y="32.5em" x="37.5%" fill="#ffffff">#787B8099</text>
				<text y="32.5em" x="62.5%" fill="#000000">#B8CFE680</text>
				<text y="32.5em" x="87.5%" fill="#000000">#ACB6BF8C</text>
			</g>
		
			<g>
				<rect height="1.8em" width="20%" x="27.5%" y="31.8em" rx="2" ry="2" fill="#a37acc" />
				<rect height="1.8em" width="20%" x="52.5%" y="31.8em" rx="2" ry="2" fill="#dfbfff" />
				<rect height="1.8em" width="20%" x="77.5%" y="31.8em" rx="2" ry="2" fill="#d2a6ff" />
			</g>

			<g font-family="sans-serif" font-size="12">
				<text y="35.75em" x="12.5%" fill="333333">syntax.constant</text>
				<text y="35.75em" x="37.5%" fill="#000000">#A37ACC</text>
				<text y="35.75em" x="62.5%" fill="#000000">#DFBFFF</text>
				<text y="35.75em" x="87.5%" fill="#000000">#D2A6FF</text>
			</g>
		
			<g>
				<rect height="1.8em" width="20%" x="27.5%" y="34.8em" rx="2" ry="2" fill="#ed9366" />
				<rect height="1.8em" width="20%" x="52.5%" y="34.8em" rx="2" ry="2" fill="#f29e74" />
				<rect height="1.8em" width="20%" x="77.5%" y="34.8em" rx="2" ry="2" fill="#f29668" />
			</g>

			<g font-family="sans-serif" font-size="12">
				<text y="39em" x="12.5%" fill="333333">syntax.operator</text>
				<text y="39em" x="37.5%" fill="#000000">#ED9366</text>
				<text y="39em" x="62.5%" fill="#000000">#F29E74</text>
				<text y="39em" x="87.5%" fill="#000000">#F29668</text>
			</g>
		
			<g>
				<rect height="1.8em" width="20%" x="27.5%" y="37.8em" rx="2" ry="2" fill="#6cbf43" />
				<rect height="1.8em" width="20%" x="52.5%" y="37.8em" rx="2" ry="2" fill="#87d96c" />
				<rect height="1.8em" width="20%" x="77.5%" y="37.8em" rx="2" ry="2" fill="#7fd962" />
			</g>

			<g font-family="sans-serif" font-size="12">
				<text y="42.25em" x="12.5%" fill="333333">vcs.added</text>
				<text y="42.25em" x="37.5%" fill="#000000">#6CBF43</text>
				<text y="42.25em" x="62.5%" fill="#000000">#87D96C</text>
				<text y="42.25em" x="87.5%" fill="#000000">#7FD962</text>
			</g>
		
			<g>
				<rect height="1.8em" width="20%" x="27.5%" y="40.8em" rx="2" ry="2" fill="#478acc" />
				<rect height="1.8em" width="20%" x="52.5%" y="40.8em" rx="2" ry="2" fill="#80bfff" />
				<rect height="1.8em" width="20%" x="77.5%" y="40.8em" rx="2" ry="2" fill="#73b8ff" />
			</g>

			<g font-family="sans-serif" font-size="12">
				<text y="45.5em" x="12.5%" fill="333333">vcs.modified</text>
				<text y="45.5em" x="37.5%" fill="#000000">#478ACC</text>
				<text y="45.5em" x="62.5%" fill="#000000">#80BFFF</text>
				<text y="45.5em" x="87.5%" fill="#000000">#73B8FF</text>
			</g>
		
			<g>
				<rect height="1.8em" width="20%" x="27.5%" y="43.8em" rx="2" ry="2" fill="#ff7383" />
				<rect height="1.8em" width="20%" x="52.5%" y="43.8em" rx="2" ry="2" fill="#f27983" />
				<rect height="1.8em" width="20%" x="77.5%" y="43.8em" rx="2" ry="2" fill="#f26d78" />
			</g>

			<g font-family="sans-serif" font-size="12">
				<text y="48.75em" x="12.5%" fill="333333">vcs.removed</text>
				<text y="48.75em" x="37.5%" fill="#000000">#FF7383</text>
				<text y="48.75em" x="62.5%" fill="#000000">#F27983</text>
				<text y="48.75em" x="87.5%" fill="#000000">#F26D78</text>
			</g>
		
			<g>
				<rect height="1.8em" width="20%" x="27.5%" y="46.8em" rx="2" ry="2" fill="#5c6166" />
				<rect height="1.8em" width="20%" x="52.5%" y="46.8em" rx="2" ry="2" fill="#cccac2" />
				<rect height="1.8em" width="20%" x="77.5%" y="46.8em" rx="2" ry="2" fill="#bfbdb6" />
			</g>

			<g font-family="sans-serif" font-size="12">
				<text y="52em" x="12.5%" fill="333333">editor.fg</text>
				<text y="52em" x="37.5%" fill="#ffffff">#5C6166</text>
				<text y="52em" x="62.5%" fill="#000000">#CCCAC2</text>
				<text y="52em" x="87.5%" fill="#000000">#BFBDB6</text>
			</g>
		
			<g>
				<rect height="1.8em" width="20%" x="27.5%" y="49.8em" rx="2" ry="2" fill="#fcfcfc" />
				<rect height="1.8em" width="20%" x="52.5%" y="49.8em" rx="2" ry="2" fill="#242936" />
				<rect height="1.8em" width="20%" x="77.5%" y="49.8em" rx="2" ry="2" fill="#10141c" />
			</g>

			<g font-family="sans-serif" font-size="12">
				<text y="55.25em" x="12.5%" fill="333333">editor.bg</text>
				<text y="55.25em" x="37.5%" fill="#000000">#FCFCFC</text>
				<text y="55.25em" x="62.5%" fill="#ffffff">#242936</text>
				<text y="55.25em" x="87.5%" fill="#ffffff">#10141C</text>
			</g>
		
			<g>
				<rect height="1.8em" width="20%" x="27.5%" y="52.8em" rx="2" ry="2" fill="#8a91991a" />
				<rect height="1.8em" width="20%" x="52.5%" y="52.8em" rx="2" ry="2" fill="#1a1f29" />
				<rect height="1.8em" width="20%" x="77.5%" y="52.8em" rx="2" ry="2" fill="#161a24" />
			</g>

			<g font-family="sans-serif" font-size="12">
				<text y="58.5em" x="12.5%" fill="333333">editor.line</text>
				<text y="58.5em" x="37.5%" fill="#000000">#8A91991A</text>
				<text y="58.5em" x="62.5%" fill="#ffffff">#1A1F29</text>
				<text y="58.5em" x="87.5%" fill="#ffffff">#161A24</text>
			</g>
		
			<g>
				<rect height="1.8em" width="20%" x="27.5%" y="55.8em" rx="2" ry="2" fill="#036dd626" />
				<rect height="1.8em" width="20%" x="52.5%" y="55.8em" rx="2" ry="2" fill="#3388ff40" />
				<rect height="1.8em" width="20%" x="77.5%" y="55.8em" rx="2" ry="2" fill="#3388ff40" />
			</g>

			<g font-family="sans-serif" font-size="12">
				<text y="61.75em" x="12.5%" fill="333333">editor.selection.active</text>
				<text y="61.75em" x="37.5%" fill="#ffffff">#036DD626</text>
				<text y="61.75em" x="62.5%" fill="#000000">#3388FF40</text>
				<text y="61.75em" x="87.5%" fill="#000000">#3388FF40</text>
			</g>
		
			<g>
				<rect height="1.8em" width="20%" x="27.5%" y="58.8em" rx="2" ry="2" fill="#5696d61a" />
				<rect height="1.8em" width="20%" x="52.5%" y="58.8em" rx="2" ry="2" fill="#4d97ff26" />
				<rect height="1.8em" width="20%" x="77.5%" y="58.8em" rx="2" ry="2" fill="#80b5ff26" />
			</g>

			<g font-family="sans-serif" font-size="12">
				<text y="65em" x="12.5%" fill="333333">editor.selection.inactive</text>
				<text y="65em" x="37.5%" fill="#000000">#5696D61A</text>
				<text y="65em" x="62.5%" fill="#000000">#4D97FF26</text>
				<text y="65em" x="87.5%" fill="#000000">#80B5FF26</text>
			</g>
		
			<g>
				<rect height="1.8em" width="20%" x="27.5%" y="61.8em" rx="2" ry="2" fill="#ecd9ff" />
				<rect height="1.8em" width="20%" x="52.5%" y="61.8em" rx="2" ry="2" fill="#695380" />
				<rect height="1.8em" width="20%" x="77.5%" y="61.8em" rx="2" ry="2" fill="#6c5980" />
			</g>

			<g font-family="sans-serif" font-size="12">
				<text y="68.25em" x="12.5%" fill="333333">editor.findMatch.active</text>
				<text y="68.25em" x="37.5%" fill="#000000">#ECD9FF</text>
				<text y="68.25em" x="62.5%" fill="#ffffff">#695380</text>
				<text y="68.25em" x="87.5%" fill="#ffffff">#6C5980</text>
			</g>
		
			<g>
				<rect height="1.8em" width="20%" x="27.5%" y="64.8em" rx="2" ry="2" fill="#ecd9ff73" />
				<rect height="1.8em" width="20%" x="52.5%" y="64.8em" rx="2" ry="2" fill="#69538066" />
				<rect height="1.8em" width="20%" x="77.5%" y="64.8em" rx="2" ry="2" fill="#6c598066" />
			</g>

			<g font-family="sans-serif" font-size="12">
				<text y="71.5em" x="12.5%" fill="333333">editor.findMatch.inactive</text>
				<text y="71.5em" x="37.5%" fill="#000000">#ECD9FF73</text>
				<text y="71.5em" x="62.5%" fill="#ffffff">#69538066</text>
				<text y="71.5em" x="87.5%" fill="#ffffff">#6C598066</text>
			</g>
		
			<g>
				<rect height="1.8em" width="20%" x="27.5%" y="67.8em" rx="2" ry="2" fill="#8a9199cc" />
				<rect height="1.8em" width="20%" x="52.5%" y="67.8em" rx="2" ry="2" fill="#8a9199cc" />
				<rect height="1.8em" width="20%" x="77.5%" y="67.8em" rx="2" ry="2" fill="#6c7380e6" />
			</g>

			<g font-family="sans-serif" font-size="12">
				<text y="74.75em" x="12.5%" fill="333333">editor.gutter.active</text>
				<text y="74.75em" x="37.5%" fill="#000000">#8A9199CC</text>
				<text y="74.75em" x="62.5%" fill="#000000">#8A9199CC</text>
				<text y="74.75em" x="87.5%" fill="#ffffff">#6C7380E6</text>
			</g>
		
			<g>
				<rect height="1.8em" width="20%" x="27.5%" y="70.8em" rx="2" ry="2" fill="#8a919966" />
				<rect height="1.8em" width="20%" x="52.5%" y="70.8em" rx="2" ry="2" fill="#8a919980" />
				<rect height="1.8em" width="20%" x="77.5%" y="70.8em" rx="2" ry="2" fill="#6c738099" />
			</g>

			<g font-family="sans-serif" font-size="12">
				<text y="78em" x="12.5%" fill="333333">editor.gutter.normal</text>
				<text y="78em" x="37.5%" fill="#000000">#8A919966</text>
				<text y="78em" x="62.5%" fill="#000000">#8A919980</text>
				<text y="78em" x="87.5%" fill="#ffffff">#6C738099</text>
			</g>
		
			<g>
				<rect height="1.8em" width="20%" x="27.5%" y="73.8em" rx="2" ry="2" fill="#8a919959" />
				<rect height="1.8em" width="20%" x="52.5%" y="73.8em" rx="2" ry="2" fill="#8a919999" />
				<rect height="1.8em" width="20%" x="77.5%" y="73.8em" rx="2" ry="2" fill="#6c738080" />
			</g>

			<g font-family="sans-serif" font-size="12">
				<text y="81.25em" x="12.5%" fill="333333">editor.indentGuide.active</text>
				<text y="81.25em" x="37.5%" fill="#000000">#8A919959</text>
				<text y="81.25em" x="62.5%" fill="#000000">#8A919999</text>
				<text y="81.25em" x="87.5%" fill="#ffffff">#6C738080</text>
			</g>
		
			<g>
				<rect height="1.8em" width="20%" x="27.5%" y="76.8em" rx="2" ry="2" fill="#8a91992e" />
				<rect height="1.8em" width="20%" x="52.5%" y="76.8em" rx="2" ry="2" fill="#8a91994d" />
				<rect height="1.8em" width="20%" x="77.5%" y="76.8em" rx="2" ry="2" fill="#6c73804d" />
			</g>

			<g font-family="sans-serif" font-size="12">
				<text y="84.5em" x="12.5%" fill="333333">editor.indentGuide.normal</text>
				<text y="84.5em" x="37.5%" fill="#000000">#8A91992E</text>
				<text y="84.5em" x="62.5%" fill="#000000">#8A91994D</text>
				<text y="84.5em" x="87.5%" fill="#ffffff">#6C73804D</text>
			</g>
		
			<g>
				<rect height="1.8em" width="20%" x="27.5%" y="79.8em" rx="2" ry="2" fill="#8a9199" />
				<rect height="1.8em" width="20%" x="52.5%" y="79.8em" rx="2" ry="2" fill="#707a8c" />
				<rect height="1.8em" width="20%" x="77.5%" y="79.8em" rx="2" ry="2" fill="#565b66" />
			</g>

			<g font-family="sans-serif" font-size="12">
				<text y="87.75em" x="12.5%" fill="333333">ui.fg</text>
				<text y="87.75em" x="37.5%" fill="#000000">#8A9199</text>
				<text y="87.75em" x="62.5%" fill="#ffffff">#707A8C</text>
				<text y="87.75em" x="87.5%" fill="#ffffff">#565B66</text>
			</g>
		
			<g>
				<rect height="1.8em" width="20%" x="27.5%" y="82.8em" rx="2" ry="2" fill="#f8f9fa" />
				<rect height="1.8em" width="20%" x="52.5%" y="82.8em" rx="2" ry="2" fill="#1f2430" />
				<rect height="1.8em" width="20%" x="77.5%" y="82.8em" rx="2" ry="2" fill="#0d1017" />
			</g>

			<g font-family="sans-serif" font-size="12">
				<text y="91em" x="12.5%" fill="333333">ui.bg</text>
				<text y="91em" x="37.5%" fill="#000000">#F8F9FA</text>
				<text y="91em" x="62.5%" fill="#ffffff">#1F2430</text>
				<text y="91em" x="87.5%" fill="#ffffff">#0D1017</text>
			</g>
		
			<g>
				<rect height="1.8em" width="20%" x="27.5%" y="85.8em" rx="2" ry="2" fill="#6b7d8f1a" />
				<rect height="1.8em" width="20%" x="52.5%" y="85.8em" rx="2" ry="2" fill="#161921" />
				<rect height="1.8em" width="20%" x="77.5%" y="85.8em" rx="2" ry="2" fill="#1b1f29" />
			</g>

			<g font-family="sans-serif" font-size="12">
				<text y="94.25em" x="12.5%" fill="333333">ui.line</text>
				<text y="94.25em" x="37.5%" fill="#ffffff">#6B7D8F1A</text>
				<text y="94.25em" x="62.5%" fill="#ffffff">#161921</text>
				<text y="94.25em" x="87.5%" fill="#ffffff">#1B1F29</text>
			</g>
		
			<g>
				<rect height="1.8em" width="20%" x="27.5%" y="88.8em" rx="2" ry="2" fill="#56728f1f" />
				<rect height="1.8em" width="20%" x="52.5%" y="88.8em" rx="2" ry="2" fill="#63759926" />
				<rect height="1.8em" width="20%" x="77.5%" y="88.8em" rx="2" ry="2" fill="#47526640" />
			</g>

			<g font-family="sans-serif" font-size="12">
				<text y="97.5em" x="12.5%" fill="333333">ui.selection.active</text>
				<text y="97.5em" x="37.5%" fill="#ffffff">#56728F1F</text>
				<text y="97.5em" x="62.5%" fill="#ffffff">#63759926</text>
				<text y="97.5em" x="87.5%" fill="#ffffff">#47526640</text>
			</g>
		
			<g>
				<rect height="1.8em" width="20%" x="27.5%" y="91.8em" rx="2" ry="2" fill="#6b7d8f1f" />
				<rect height="1.8em" width="20%" x="52.5%" y="91.8em" rx="2" ry="2" fill="#69758c1f" />
				<rect height="1.8em" width="20%" x="77.5%" y="91.8em" rx="2" ry="2" fill="#47526633" />
			</g>

			<g font-family="sans-serif" font-size="12">
				<text y="100.75em" x="12.5%" fill="333333">ui.selection.normal</text>
				<text y="100.75em" x="37.5%" fill="#ffffff">#6B7D8F1F</text>
				<text y="100.75em" x="62.5%" fill="#ffffff">#69758C1F</text>
				<text y="100.75em" x="87.5%" fill="#ffffff">#47526633</text>
			</g>
		
			<g>
				<rect height="1.8em" width="20%" x="27.5%" y="94.8em" rx="2" ry="2" fill="#ffffff" />
				<rect height="1.8em" width="20%" x="52.5%" y="94.8em" rx="2" ry="2" fill="#282e3b" />
				<rect height="1.8em" width="20%" x="77.5%" y="94.8em" rx="2" ry="2" fill="#141821" />
			</g>

			<g font-family="sans-serif" font-size="12">
				<text y="104em" x="12.5%" fill="333333">ui.popup.bg</text>
				<text y="104em" x="37.5%" fill="#000000">#FFFFFF</text>
				<text y="104em" x="62.5%" fill="#ffffff">#282E3B</text>
				<text y="104em" x="87.5%" fill="#ffffff">#141821</text>
			</g>
		
			<g>
				<rect height="1.8em" width="20%" x="27.5%" y="97.8em" rx="2" ry="2" fill="#00000014" />
				<rect height="1.8em" width="20%" x="52.5%" y="97.8em" rx="2" ry="2" fill="#0000004d" />
				<rect height="1.8em" width="20%" x="77.5%" y="97.8em" rx="2" ry="2" fill="#00000099" />
			</g>

			<g font-family="sans-serif" font-size="12">
				<text y="107.25em" x="12.5%" fill="333333">ui.popup.shadow</text>
				<text y="107.25em" x="37.5%" fill="#ffffff">#00000014</text>
				<text y="107.25em" x="62.5%" fill="#ffffff">#0000004D</text>
				<text y="107.25em" x="87.5%" fill="#ffffff">#00000099</text>
			</g>
		
			<g>
				<rect height="1.8em" width="20%" x="27.5%" y="100.8em" rx="2" ry="2" fill="#ffaa33" />
				<rect height="1.8em" width="20%" x="52.5%" y="100.8em" rx="2" ry="2" fill="#ffcc66" />
				<rect height="1.8em" width="20%" x="77.5%" y="100.8em" rx="2" ry="2" fill="#e6b450" />
			</g>

			<g font-family="sans-serif" font-size="12">
				<text y="110.5em" x="12.5%" fill="333333">common.accent</text>
				<text y="110.5em" x="37.5%" fill="#000000">#FFAA33</text>
				<text y="110.5em" x="62.5%" fill="#000000">#FFCC66</text>
				<text y="110.5em" x="87.5%" fill="#000000">#E6B450</text>
			</g>
		
			<g>
				<rect height="1.8em" width="20%" x="27.5%" y="103.8em" rx="2" ry="2" fill="#804a00" />
				<rect height="1.8em" width="20%" x="52.5%" y="103.8em" rx="2" ry="2" fill="#805500" />
				<rect height="1.8em" width="20%" x="77.5%" y="103.8em" rx="2" ry="2" fill="#734d00" />
			</g>

			<g font-family="sans-serif" font-size="12">
				<text y="113.75em" x="12.5%" fill="333333">common.accentFg</text>
				<text y="113.75em" x="37.5%" fill="#ffffff">#804A00</text>
				<text y="113.75em" x="62.5%" fill="#ffffff">#805500</text>
				<text y="113.75em" x="87.5%" fill="#ffffff">#734D00</text>
			</g>
		
			<g>
				<rect height="1.8em" width="20%" x="27.5%" y="106.8em" rx="2" ry="2" fill="#e65050" />
				<rect height="1.8em" width="20%" x="52.5%" y="106.8em" rx="2" ry="2" fill="#ff6666" />
				<rect height="1.8em" width="20%" x="77.5%" y="106.8em" rx="2" ry="2" fill="#d95757" />
			</g>

			<g font-family="sans-serif" font-size="12">
				<text y="117em" x="12.5%" fill="333333">common.error</text>
				<text y="117em" x="37.5%" fill="#000000">#E65050</text>
				<text y="117em" x="62.5%" fill="#000000">#FF6666</text>
				<text y="117em" x="87.5%" fill="#000000">#D95757</text>
			</g>
		

</svg>
