<?xml version="1.0" standalone="no" ?>
  <!DOCTYPE svg PUBLIC "-//W3C//DTD SVG 1.1//EN"
    "http://www.w3.org/Graphics/SVG/1.1/DTD/svg11.dtd">
  <svg width="100%" height="102em" xmlns="http://www.w3.org/2000/svg" xmlns:xlink="http://www.w3.org/1999/xlink" font-family="monospace" text-anchor="middle">
    <g>
      <rect height="102em" width="25%" x="25%" fill="#FAFAFA" />
      <rect height="102em" width="25%" x="50%" fill="#212733" />
      <rect height="102em" width="25%" x="75%" fill="#0F1419" />
    </g>
    <g font-weight="bold">
      <text font-family="sans-serif" font-size="13" y="3em" x="12.5%" fill="#333333">Path</text>
      <text font-family="sans-serif" font-size="13" y="3em" x="37.5%" fill="#61676c">Light</text>
      <text font-family="sans-serif" font-size="13" y="3em" x="62.5%" fill="#ccc9c2">Mirage</text>
      <text font-family="sans-serif" font-size="13" y="3em" x="87.5%" fill="#bfbab0">Dark</text>
    </g>

    
			<g>
				<rect height="1.8em" width="20%" x="27.5%" y="4.8em" rx="2" ry="2" fill="#ff8f40" />
				<rect height="1.8em" width="20%" x="52.5%" y="4.8em" rx="2" ry="2" fill="#ffcc66" />
				<rect height="1.8em" width="20%" x="77.5%" y="4.8em" rx="2" ry="2" fill="#f29718" />
			</g>

			<g font-family="sans-serif" font-size="12">
				<text y="6.5em" x="12.5%" fill="333333">common.accent</text>
				<text y="6.5em" x="37.5%" fill="#000000">#FF8F40</text>
				<text y="6.5em" x="62.5%" fill="#000000">#FFCC66</text>
				<text y="6.5em" x="87.5%" fill="#000000">#F29718</text>
			</g>
		
			<g>
				<rect height="1.8em" width="20%" x="27.5%" y="7.8em" rx="2" ry="2" fill="#fafafa" />
				<rect height="1.8em" width="20%" x="52.5%" y="7.8em" rx="2" ry="2" fill="#212733" />
				<rect height="1.8em" width="20%" x="77.5%" y="7.8em" rx="2" ry="2" fill="#0f1419" />
			</g>

			<g font-family="sans-serif" font-size="12">
				<text y="9.75em" x="12.5%" fill="333333">common.bg</text>
				<text y="9.75em" x="37.5%" fill="#000000">#FAFAFA</text>
				<text y="9.75em" x="62.5%" fill="#ffffff">#212733</text>
				<text y="9.75em" x="87.5%" fill="#ffffff">#0F1419</text>
			</g>
		
			<g>
				<rect height="1.8em" width="20%" x="27.5%" y="10.8em" rx="2" ry="2" fill="#61676c" />
				<rect height="1.8em" width="20%" x="52.5%" y="10.8em" rx="2" ry="2" fill="#ccc9c2" />
				<rect height="1.8em" width="20%" x="77.5%" y="10.8em" rx="2" ry="2" fill="#bfbab0" />
			</g>

			<g font-family="sans-serif" font-size="12">
				<text y="13em" x="12.5%" fill="333333">common.fg</text>
				<text y="13em" x="37.5%" fill="#ffffff">#61676C</text>
				<text y="13em" x="62.5%" fill="#000000">#CCC9C2</text>
				<text y="13em" x="87.5%" fill="#000000">#BFBAB0</text>
			</g>
		
			<g>
				<rect height="1.8em" width="20%" x="27.5%" y="13.8em" rx="2" ry="2" fill="#9da2a6" />
				<rect height="1.8em" width="20%" x="52.5%" y="13.8em" rx="2" ry="2" fill="#667380" />
				<rect height="1.8em" width="20%" x="77.5%" y="13.8em" rx="2" ry="2" fill="#475259" />
			</g>

			<g font-family="sans-serif" font-size="12">
				<text y="16.25em" x="12.5%" fill="333333">common.ui</text>
				<text y="16.25em" x="37.5%" fill="#000000">#9DA2A6</text>
				<text y="16.25em" x="62.5%" fill="#ffffff">#667380</text>
				<text y="16.25em" x="87.5%" fill="#ffffff">#475259</text>
			</g>
		
			<g>
				<rect height="1.8em" width="20%" x="27.5%" y="16.8em" rx="2" ry="2" fill="#55b4d4" />
				<rect height="1.8em" width="20%" x="52.5%" y="16.8em" rx="2" ry="2" fill="#5ccfe6" />
				<rect height="1.8em" width="20%" x="77.5%" y="16.8em" rx="2" ry="2" fill="#39bae6" />
			</g>

			<g font-family="sans-serif" font-size="12">
				<text y="19.5em" x="12.5%" fill="333333">syntax.tag</text>
				<text y="19.5em" x="37.5%" fill="#000000">#55B4D4</text>
				<text y="19.5em" x="62.5%" fill="#000000">#5CCFE6</text>
				<text y="19.5em" x="87.5%" fill="#000000">#39BAE6</text>
			</g>
		
			<g>
				<rect height="1.8em" width="20%" x="27.5%" y="19.8em" rx="2" ry="2" fill="#f29718" />
				<rect height="1.8em" width="20%" x="52.5%" y="19.8em" rx="2" ry="2" fill="#ffd580" />
				<rect height="1.8em" width="20%" x="77.5%" y="19.8em" rx="2" ry="2" fill="#ffb454" />
			</g>

			<g font-family="sans-serif" font-size="12">
				<text y="22.75em" x="12.5%" fill="333333">syntax.func</text>
				<text y="22.75em" x="37.5%" fill="#000000">#F29718</text>
				<text y="22.75em" x="62.5%" fill="#000000">#FFD580</text>
				<text y="22.75em" x="87.5%" fill="#000000">#FFB454</text>
			</g>
		
			<g>
				<rect height="1.8em" width="20%" x="27.5%" y="22.8em" rx="2" ry="2" fill="#399ee6" />
				<rect height="1.8em" width="20%" x="52.5%" y="22.8em" rx="2" ry="2" fill="#73d0ff" />
				<rect height="1.8em" width="20%" x="77.5%" y="22.8em" rx="2" ry="2" fill="#59c2ff" />
			</g>

			<g font-family="sans-serif" font-size="12">
				<text y="26em" x="12.5%" fill="333333">syntax.entity</text>
				<text y="26em" x="37.5%" fill="#000000">#399EE6</text>
				<text y="26em" x="62.5%" fill="#000000">#73D0FF</text>
				<text y="26em" x="87.5%" fill="#000000">#59C2FF</text>
			</g>
		
			<g>
				<rect height="1.8em" width="20%" x="27.5%" y="25.8em" rx="2" ry="2" fill="#86b300" />
				<rect height="1.8em" width="20%" x="52.5%" y="25.8em" rx="2" ry="2" fill="#bae67e" />
				<rect height="1.8em" width="20%" x="77.5%" y="25.8em" rx="2" ry="2" fill="#c2d94c" />
			</g>

			<g font-family="sans-serif" font-size="12">
				<text y="29.25em" x="12.5%" fill="333333">syntax.string</text>
				<text y="29.25em" x="37.5%" fill="#000000">#86B300</text>
				<text y="29.25em" x="62.5%" fill="#000000">#BAE67E</text>
				<text y="29.25em" x="87.5%" fill="#000000">#C2D94C</text>
			</g>
		
			<g>
				<rect height="1.8em" width="20%" x="27.5%" y="28.8em" rx="2" ry="2" fill="#4cbf99" />
				<rect height="1.8em" width="20%" x="52.5%" y="28.8em" rx="2" ry="2" fill="#95e6cb" />
				<rect height="1.8em" width="20%" x="77.5%" y="28.8em" rx="2" ry="2" fill="#95e6cb" />
			</g>

			<g font-family="sans-serif" font-size="12">
				<text y="32.5em" x="12.5%" fill="333333">syntax.regexp</text>
				<text y="32.5em" x="37.5%" fill="#000000">#4CBF99</text>
				<text y="32.5em" x="62.5%" fill="#000000">#95E6CB</text>
				<text y="32.5em" x="87.5%" fill="#000000">#95E6CB</text>
			</g>
		
			<g>
				<rect height="1.8em" width="20%" x="27.5%" y="31.8em" rx="2" ry="2" fill="#f07171" />
				<rect height="1.8em" width="20%" x="52.5%" y="31.8em" rx="2" ry="2" fill="#f28779" />
				<rect height="1.8em" width="20%" x="77.5%" y="31.8em" rx="2" ry="2" fill="#f07178" />
			</g>

			<g font-family="sans-serif" font-size="12">
				<text y="35.75em" x="12.5%" fill="333333">syntax.markup</text>
				<text y="35.75em" x="37.5%" fill="#000000">#F07171</text>
				<text y="35.75em" x="62.5%" fill="#000000">#F28779</text>
				<text y="35.75em" x="87.5%" fill="#000000">#F07178</text>
			</g>
		
			<g>
				<rect height="1.8em" width="20%" x="27.5%" y="34.8em" rx="2" ry="2" fill="#fa6e32" />
				<rect height="1.8em" width="20%" x="52.5%" y="34.8em" rx="2" ry="2" fill="#ffa759" />
				<rect height="1.8em" width="20%" x="77.5%" y="34.8em" rx="2" ry="2" fill="#ff7733" />
			</g>

			<g font-family="sans-serif" font-size="12">
				<text y="39em" x="12.5%" fill="333333">syntax.keyword</text>
				<text y="39em" x="37.5%" fill="#000000">#FA6E32</text>
				<text y="39em" x="62.5%" fill="#000000">#FFA759</text>
				<text y="39em" x="87.5%" fill="#000000">#FF7733</text>
			</g>
		
			<g>
				<rect height="1.8em" width="20%" x="27.5%" y="37.8em" rx="2" ry="2" fill="#e6b673" />
				<rect height="1.8em" width="20%" x="52.5%" y="37.8em" rx="2" ry="2" fill="#ffc44c" />
				<rect height="1.8em" width="20%" x="77.5%" y="37.8em" rx="2" ry="2" fill="#e6b673" />
			</g>

			<g font-family="sans-serif" font-size="12">
				<text y="42.25em" x="12.5%" fill="333333">syntax.special</text>
				<text y="42.25em" x="37.5%" fill="#000000">#E6B673</text>
				<text y="42.25em" x="62.5%" fill="#000000">#FFC44C</text>
				<text y="42.25em" x="87.5%" fill="#000000">#E6B673</text>
			</g>
		
			<g>
				<rect height="1.8em" width="20%" x="27.5%" y="40.8em" rx="2" ry="2" fill="#abb0b6" />
				<rect height="1.8em" width="20%" x="52.5%" y="40.8em" rx="2" ry="2" fill="#5c6773" />
				<rect height="1.8em" width="20%" x="77.5%" y="40.8em" rx="2" ry="2" fill="#5c6773" />
			</g>

			<g font-family="sans-serif" font-size="12">
				<text y="45.5em" x="12.5%" fill="333333">syntax.comment</text>
				<text y="45.5em" x="37.5%" fill="#000000">#ABB0B6</text>
				<text y="45.5em" x="62.5%" fill="#ffffff">#5C6773</text>
				<text y="45.5em" x="87.5%" fill="#ffffff">#5C6773</text>
			</g>
		
			<g>
				<rect height="1.8em" width="20%" x="27.5%" y="43.8em" rx="2" ry="2" fill="#a37acc" />
				<rect height="1.8em" width="20%" x="52.5%" y="43.8em" rx="2" ry="2" fill="#d4bfff" />
				<rect height="1.8em" width="20%" x="77.5%" y="43.8em" rx="2" ry="2" fill="#ffee99" />
			</g>

			<g font-family="sans-serif" font-size="12">
				<text y="48.75em" x="12.5%" fill="333333">syntax.constant</text>
				<text y="48.75em" x="37.5%" fill="#000000">#A37ACC</text>
				<text y="48.75em" x="62.5%" fill="#000000">#D4BFFF</text>
				<text y="48.75em" x="87.5%" fill="#000000">#FFEE99</text>
			</g>
		
			<g>
				<rect height="1.8em" width="20%" x="27.5%" y="46.8em" rx="2" ry="2" fill="#ed9366" />
				<rect height="1.8em" width="20%" x="52.5%" y="46.8em" rx="2" ry="2" fill="#f29e74" />
				<rect height="1.8em" width="20%" x="77.5%" y="46.8em" rx="2" ry="2" fill="#f29668" />
			</g>

			<g font-family="sans-serif" font-size="12">
				<text y="52em" x="12.5%" fill="333333">syntax.operator</text>
				<text y="52em" x="37.5%" fill="#000000">#ED9366</text>
				<text y="52em" x="62.5%" fill="#000000">#F29E74</text>
				<text y="52em" x="87.5%" fill="#000000">#F29668</text>
			</g>
		
			<g>
				<rect height="1.8em" width="20%" x="27.5%" y="49.8em" rx="2" ry="2" fill="#f51818" />
				<rect height="1.8em" width="20%" x="52.5%" y="49.8em" rx="2" ry="2" fill="#ff3333" />
				<rect height="1.8em" width="20%" x="77.5%" y="49.8em" rx="2" ry="2" fill="#ff3333" />
			</g>

			<g font-family="sans-serif" font-size="12">
				<text y="55.25em" x="12.5%" fill="333333">syntax.error</text>
				<text y="55.25em" x="37.5%" fill="#ffffff">#F51818</text>
				<text y="55.25em" x="62.5%" fill="#000000">#FF3333</text>
				<text y="55.25em" x="87.5%" fill="#000000">#FF3333</text>
			</g>
		
			<g>
				<rect height="1.8em" width="20%" x="27.5%" y="52.8em" rx="2" ry="2" fill="#ffffff" />
				<rect height="1.8em" width="20%" x="52.5%" y="52.8em" rx="2" ry="2" fill="#262c38" />
				<rect height="1.8em" width="20%" x="77.5%" y="52.8em" rx="2" ry="2" fill="#13181d" />
			</g>

			<g font-family="sans-serif" font-size="12">
				<text y="58.5em" x="12.5%" fill="333333">ui.panel.bg</text>
				<text y="58.5em" x="37.5%" fill="#000000">#FFFFFF</text>
				<text y="58.5em" x="62.5%" fill="#ffffff">#262C38</text>
				<text y="58.5em" x="87.5%" fill="#ffffff">#13181D</text>
			</g>
		
			<g>
				<rect height="1.8em" width="20%" x="27.5%" y="55.8em" rx="2" ry="2" fill="#f0f0f0" />
				<rect height="1.8em" width="20%" x="52.5%" y="55.8em" rx="2" ry="2" fill="#161c27" />
				<rect height="1.8em" width="20%" x="77.5%" y="55.8em" rx="2" ry="2" fill="#00030c" />
			</g>

			<g font-family="sans-serif" font-size="12">
				<text y="61.75em" x="12.5%" fill="333333">ui.panel.shadow</text>
				<text y="61.75em" x="37.5%" fill="#000000">#F0F0F0</text>
				<text y="61.75em" x="62.5%" fill="#ffffff">#161C27</text>
				<text y="61.75em" x="87.5%" fill="#ffffff">#00030C</text>
			</g>
		
			<g>
				<rect height="1.8em" width="20%" x="27.5%" y="58.8em" rx="2" ry="2" fill="#f0f0f0" />
				<rect height="1.8em" width="20%" x="52.5%" y="58.8em" rx="2" ry="2" fill="#121824" />
				<rect height="1.8em" width="20%" x="77.5%" y="58.8em" rx="2" ry="2" fill="#000000" />
			</g>

			<g font-family="sans-serif" font-size="12">
				<text y="65em" x="12.5%" fill="333333">ui.panel.border</text>
				<text y="65em" x="37.5%" fill="#000000">#F0F0F0</text>
				<text y="65em" x="62.5%" fill="#ffffff">#121824</text>
				<text y="65em" x="87.5%" fill="#ffffff">#000000</text>
			</g>
		
			<g>
				<rect height="1.8em" width="20%" x="27.5%" y="61.8em" rx="2" ry="2" fill="#f9f9f9" />
				<rect height="1.8em" width="20%" x="52.5%" y="61.8em" rx="2" ry="2" fill="#1f2531" />
				<rect height="1.8em" width="20%" x="77.5%" y="61.8em" rx="2" ry="2" fill="#030a11" />
			</g>

			<g font-family="sans-serif" font-size="12">
				<text y="68.25em" x="12.5%" fill="333333">ui.panel.row</text>
				<text y="68.25em" x="37.5%" fill="#000000">#F9F9F9</text>
				<text y="68.25em" x="62.5%" fill="#ffffff">#1F2531</text>
				<text y="68.25em" x="87.5%" fill="#ffffff">#030A11</text>
			</g>
		
			<g>
				<rect height="1.8em" width="20%" x="27.5%" y="64.8em" rx="2" ry="2" fill="#c2c5c8" />
				<rect height="1.8em" width="20%" x="52.5%" y="64.8em" rx="2" ry="2" fill="#47515d" />
				<rect height="1.8em" width="20%" x="77.5%" y="64.8em" rx="2" ry="2" fill="#2e363c" />
			</g>

			<g font-family="sans-serif" font-size="12">
				<text y="71.5em" x="12.5%" fill="333333">ui.icon</text>
				<text y="71.5em" x="37.5%" fill="#000000">#C2C5C8</text>
				<text y="71.5em" x="62.5%" fill="#ffffff">#47515D</text>
				<text y="71.5em" x="87.5%" fill="#ffffff">#2E363C</text>
			</g>
		
			<g>
				<rect height="1.8em" width="20%" x="27.5%" y="67.8em" rx="2" ry="2" fill="#000000" />
				<rect height="1.8em" width="20%" x="52.5%" y="67.8em" rx="2" ry="2" fill="#ffffff" />
				<rect height="1.8em" width="20%" x="77.5%" y="67.8em" rx="2" ry="2" fill="#ffffff" />
			</g>

			<g font-family="sans-serif" font-size="12">
				<text y="74.75em" x="12.5%" fill="333333">ui.scrollbar.puck</text>
				<text y="74.75em" x="37.5%" fill="#ffffff">#000000</text>
				<text y="74.75em" x="62.5%" fill="#000000">#FFFFFF</text>
				<text y="74.75em" x="87.5%" fill="#000000">#FFFFFF</text>
			</g>
		
			<g>
				<rect height="1.8em" width="20%" x="27.5%" y="70.8em" rx="2" ry="2" fill="#f7f7f7" />
				<rect height="1.8em" width="20%" x="52.5%" y="70.8em" rx="2" ry="2" fill="#1a202b" />
				<rect height="1.8em" width="20%" x="77.5%" y="70.8em" rx="2" ry="2" fill="#000008" />
			</g>

			<g font-family="sans-serif" font-size="12">
				<text y="78em" x="12.5%" fill="333333">ui.separator</text>
				<text y="78em" x="37.5%" fill="#000000">#F7F7F7</text>
				<text y="78em" x="62.5%" fill="#ffffff">#1A202B</text>
				<text y="78em" x="87.5%" fill="#ffffff">#000008</text>
			</g>
		
			<g>
				<rect height="1.8em" width="20%" x="27.5%" y="73.8em" rx="2" ry="2" fill="#9da2a6" />
				<rect height="1.8em" width="20%" x="52.5%" y="73.8em" rx="2" ry="2" fill="#667380" />
				<rect height="1.8em" width="20%" x="77.5%" y="73.8em" rx="2" ry="2" fill="#a7a298" />
			</g>

			<g font-family="sans-serif" font-size="12">
				<text y="81.25em" x="12.5%" fill="333333">ui.minimap</text>
				<text y="81.25em" x="37.5%" fill="#000000">#9DA2A6</text>
				<text y="81.25em" x="62.5%" fill="#ffffff">#667380</text>
				<text y="81.25em" x="87.5%" fill="#000000">#A7A298</text>
			</g>
		
			<g>
				<rect height="1.8em" width="20%" x="27.5%" y="76.8em" rx="2" ry="2" fill="#f8f8f8" />
				<rect height="1.8em" width="20%" x="52.5%" y="76.8em" rx="2" ry="2" fill="#1c222e" />
				<rect height="1.8em" width="20%" x="77.5%" y="76.8em" rx="2" ry="2" fill="#00030c" />
			</g>

			<g font-family="sans-serif" font-size="12">
				<text y="84.5em" x="12.5%" fill="333333">editor.line</text>
				<text y="84.5em" x="37.5%" fill="#000000">#F8F8F8</text>
				<text y="84.5em" x="62.5%" fill="#ffffff">#1C222E</text>
				<text y="84.5em" x="87.5%" fill="#ffffff">#00030C</text>
			</g>
		
			<g>
				<rect height="1.8em" width="20%" x="27.5%" y="79.8em" rx="2" ry="2" fill="#d9dbdd" />
				<rect height="1.8em" width="20%" x="52.5%" y="79.8em" rx="2" ry="2" fill="#39424e" />
				<rect height="1.8em" width="20%" x="77.5%" y="79.8em" rx="2" ry="2" fill="#252d33" />
			</g>

			<g font-family="sans-serif" font-size="12">
				<text y="87.75em" x="12.5%" fill="333333">editor.gutter</text>
				<text y="87.75em" x="37.5%" fill="#000000">#D9DBDD</text>
				<text y="87.75em" x="62.5%" fill="#ffffff">#39424E</text>
				<text y="87.75em" x="87.5%" fill="#ffffff">#252D33</text>
			</g>
		
			<g>
				<rect height="1.8em" width="20%" x="27.5%" y="82.8em" rx="2" ry="2" fill="#e9f2f8" />
				<rect height="1.8em" width="20%" x="52.5%" y="82.8em" rx="2" ry="2" fill="#293847" />
				<rect height="1.8em" width="20%" x="77.5%" y="82.8em" rx="2" ry="2" fill="#16242e" />
			</g>

			<g font-family="sans-serif" font-size="12">
				<text y="91em" x="12.5%" fill="333333">editor.selection.bg</text>
				<text y="91em" x="37.5%" fill="#000000">#E9F2F8</text>
				<text y="91em" x="62.5%" fill="#ffffff">#293847</text>
				<text y="91em" x="87.5%" fill="#ffffff">#16242E</text>
			</g>
		
			<g>
				<rect height="1.8em" width="20%" x="27.5%" y="85.8em" rx="2" ry="2" fill="#ecf4f9" />
				<rect height="1.8em" width="20%" x="52.5%" y="85.8em" rx="2" ry="2" fill="#283543" />
				<rect height="1.8em" width="20%" x="77.5%" y="85.8em" rx="2" ry="2" fill="#131e27" />
			</g>

			<g font-family="sans-serif" font-size="12">
				<text y="94.25em" x="12.5%" fill="333333">editor.selection.inactive</text>
				<text y="94.25em" x="37.5%" fill="#000000">#ECF4F9</text>
				<text y="94.25em" x="62.5%" fill="#ffffff">#283543</text>
				<text y="94.25em" x="87.5%" fill="#ffffff">#131E27</text>
			</g>
		
			<g>
				<rect height="1.8em" width="20%" x="27.5%" y="88.8em" rx="2" ry="2" fill="#e3eff8" />
				<rect height="1.8em" width="20%" x="52.5%" y="88.8em" rx="2" ry="2" fill="#2c3d4e" />
				<rect height="1.8em" width="20%" x="77.5%" y="88.8em" rx="2" ry="2" fill="#192b37" />
			</g>

			<g font-family="sans-serif" font-size="12">
				<text y="97.5em" x="12.5%" fill="333333">editor.selection.border</text>
				<text y="97.5em" x="37.5%" fill="#000000">#E3EFF8</text>
				<text y="97.5em" x="62.5%" fill="#ffffff">#2C3D4E</text>
				<text y="97.5em" x="87.5%" fill="#ffffff">#192B37</text>
			</g>
		
			<g>
				<rect height="1.8em" width="20%" x="27.5%" y="91.8em" rx="2" ry="2" fill="#dee0e1" />
				<rect height="1.8em" width="20%" x="52.5%" y="91.8em" rx="2" ry="2" fill="#363e4a" />
				<rect height="1.8em" width="20%" x="77.5%" y="91.8em" rx="2" ry="2" fill="#20272c" />
			</g>

			<g font-family="sans-serif" font-size="12">
				<text y="100.75em" x="12.5%" fill="333333">editor.guide.stack</text>
				<text y="100.75em" x="37.5%" fill="#000000">#DEE0E1</text>
				<text y="100.75em" x="62.5%" fill="#ffffff">#363E4A</text>
				<text y="100.75em" x="87.5%" fill="#ffffff">#20272C</text>
			</g>
		
			<g>
				<rect height="1.8em" width="20%" x="27.5%" y="94.8em" rx="2" ry="2" fill="#b9bcbf" />
				<rect height="1.8em" width="20%" x="52.5%" y="94.8em" rx="2" ry="2" fill="#515c69" />
				<rect height="1.8em" width="20%" x="77.5%" y="94.8em" rx="2" ry="2" fill="#363f46" />
			</g>

			<g font-family="sans-serif" font-size="12">
				<text y="104em" x="12.5%" fill="333333">editor.guide.active</text>
				<text y="104em" x="37.5%" fill="#000000">#B9BCBF</text>
				<text y="104em" x="62.5%" fill="#ffffff">#515C69</text>
				<text y="104em" x="87.5%" fill="#ffffff">#363F46</text>
			</g>
		
			<g>
				<rect height="1.8em" width="20%" x="27.5%" y="97.8em" rx="2" ry="2" fill="#dee0e1" />
				<rect height="1.8em" width="20%" x="52.5%" y="97.8em" rx="2" ry="2" fill="#363e4a" />
				<rect height="1.8em" width="20%" x="77.5%" y="97.8em" rx="2" ry="2" fill="#20272c" />
			</g>

			<g font-family="sans-serif" font-size="12">
				<text y="107.25em" x="12.5%" fill="333333">editor.guide.normal</text>
				<text y="107.25em" x="37.5%" fill="#000000">#DEE0E1</text>
				<text y="107.25em" x="62.5%" fill="#ffffff">#363E4A</text>
				<text y="107.25em" x="87.5%" fill="#ffffff">#20272C</text>
			</g>
		

</svg>
