<?xml version="1.0" standalone="no" ?>
  <!DOCTYPE svg PUBLIC "-//W3C//DTD SVG 1.1//EN"
    "http://www.w3.org/Graphics/SVG/1.1/DTD/svg11.dtd">
  <svg width="100%" height="96em" xmlns="http://www.w3.org/2000/svg" xmlns:xlink="http://www.w3.org/1999/xlink" font-family="monospace" text-anchor="middle">
    <g>
      <rect height="96em" width="25%" x="25%" fill="#FAFAFA" />
      <rect height="96em" width="25%" x="50%" fill="#212733" />
      <rect height="96em" width="25%" x="75%" fill="#0F1419" />
    </g>
    <g font-weight="bold">
      <text font-family="sans-serif" font-size="13" y="3em" x="12.5%" fill="#333333">Path</text>
      <text font-family="sans-serif" font-size="13" y="3em" x="37.5%" fill="#6c7680">Light</text>
      <text font-family="sans-serif" font-size="13" y="3em" x="62.5%" fill="#cbccc6">Mirage</text>
      <text font-family="sans-serif" font-size="13" y="3em" x="87.5%" fill="#b3b1ad">Dark</text>
    </g>

    
			<g>
				<rect height="1.8em" width="20%" x="27.5%" y="4.8em" rx="2" ry="2" fill="#ff9940" />
				<rect height="1.8em" width="20%" x="52.5%" y="4.8em" rx="2" ry="2" fill="#ffcc66" />
				<rect height="1.8em" width="20%" x="77.5%" y="4.8em" rx="2" ry="2" fill="#e6b450" />
			</g>

			<g font-family="sans-serif" font-size="12">
				<text y="6.5em" x="12.5%" fill="333333">common.accent</text>
				<text y="6.5em" x="37.5%" fill="#000000">#FF9940</text>
				<text y="6.5em" x="62.5%" fill="#000000">#FFCC66</text>
				<text y="6.5em" x="87.5%" fill="#000000">#E6B450</text>
			</g>
		
			<g>
				<rect height="1.8em" width="20%" x="27.5%" y="7.8em" rx="2" ry="2" fill="#fafafa" />
				<rect height="1.8em" width="20%" x="52.5%" y="7.8em" rx="2" ry="2" fill="#1f2430" />
				<rect height="1.8em" width="20%" x="77.5%" y="7.8em" rx="2" ry="2" fill="#0a0e14" />
			</g>

			<g font-family="sans-serif" font-size="12">
				<text y="9.75em" x="12.5%" fill="333333">common.bg</text>
				<text y="9.75em" x="37.5%" fill="#000000">#FAFAFA</text>
				<text y="9.75em" x="62.5%" fill="#ffffff">#1F2430</text>
				<text y="9.75em" x="87.5%" fill="#ffffff">#0A0E14</text>
			</g>
		
			<g>
				<rect height="1.8em" width="20%" x="27.5%" y="10.8em" rx="2" ry="2" fill="#6c7680" />
				<rect height="1.8em" width="20%" x="52.5%" y="10.8em" rx="2" ry="2" fill="#cbccc6" />
				<rect height="1.8em" width="20%" x="77.5%" y="10.8em" rx="2" ry="2" fill="#b3b1ad" />
			</g>

			<g font-family="sans-serif" font-size="12">
				<text y="13em" x="12.5%" fill="333333">common.fg</text>
				<text y="13em" x="37.5%" fill="#ffffff">#6C7680</text>
				<text y="13em" x="62.5%" fill="#000000">#CBCCC6</text>
				<text y="13em" x="87.5%" fill="#000000">#B3B1AD</text>
			</g>
		
			<g>
				<rect height="1.8em" width="20%" x="27.5%" y="13.8em" rx="2" ry="2" fill="#959da6" />
				<rect height="1.8em" width="20%" x="52.5%" y="13.8em" rx="2" ry="2" fill="#707a8c" />
				<rect height="1.8em" width="20%" x="77.5%" y="13.8em" rx="2" ry="2" fill="#3d424d" />
			</g>

			<g font-family="sans-serif" font-size="12">
				<text y="16.25em" x="12.5%" fill="333333">common.ui</text>
				<text y="16.25em" x="37.5%" fill="#000000">#959DA6</text>
				<text y="16.25em" x="62.5%" fill="#ffffff">#707A8C</text>
				<text y="16.25em" x="87.5%" fill="#ffffff">#3D424D</text>
			</g>
		
			<g>
				<rect height="1.8em" width="20%" x="27.5%" y="16.8em" rx="2" ry="2" fill="#55b4d4" />
				<rect height="1.8em" width="20%" x="52.5%" y="16.8em" rx="2" ry="2" fill="#5ccfe6" />
				<rect height="1.8em" width="20%" x="77.5%" y="16.8em" rx="2" ry="2" fill="#39bae6" />
			</g>

			<g font-family="sans-serif" font-size="12">
				<text y="19.5em" x="12.5%" fill="333333">syntax.tag</text>
				<text y="19.5em" x="37.5%" fill="#000000">#55B4D4</text>
				<text y="19.5em" x="62.5%" fill="#000000">#5CCFE6</text>
				<text y="19.5em" x="87.5%" fill="#000000">#39BAE6</text>
			</g>
		
			<g>
				<rect height="1.8em" width="20%" x="27.5%" y="19.8em" rx="2" ry="2" fill="#f2ae49" />
				<rect height="1.8em" width="20%" x="52.5%" y="19.8em" rx="2" ry="2" fill="#ffd580" />
				<rect height="1.8em" width="20%" x="77.5%" y="19.8em" rx="2" ry="2" fill="#ffb454" />
			</g>

			<g font-family="sans-serif" font-size="12">
				<text y="22.75em" x="12.5%" fill="333333">syntax.func</text>
				<text y="22.75em" x="37.5%" fill="#000000">#F2AE49</text>
				<text y="22.75em" x="62.5%" fill="#000000">#FFD580</text>
				<text y="22.75em" x="87.5%" fill="#000000">#FFB454</text>
			</g>
		
			<g>
				<rect height="1.8em" width="20%" x="27.5%" y="22.8em" rx="2" ry="2" fill="#399ee6" />
				<rect height="1.8em" width="20%" x="52.5%" y="22.8em" rx="2" ry="2" fill="#73d0ff" />
				<rect height="1.8em" width="20%" x="77.5%" y="22.8em" rx="2" ry="2" fill="#59c2ff" />
			</g>

			<g font-family="sans-serif" font-size="12">
				<text y="26em" x="12.5%" fill="333333">syntax.entity</text>
				<text y="26em" x="37.5%" fill="#000000">#399EE6</text>
				<text y="26em" x="62.5%" fill="#000000">#73D0FF</text>
				<text y="26em" x="87.5%" fill="#000000">#59C2FF</text>
			</g>
		
			<g>
				<rect height="1.8em" width="20%" x="27.5%" y="25.8em" rx="2" ry="2" fill="#86b300" />
				<rect height="1.8em" width="20%" x="52.5%" y="25.8em" rx="2" ry="2" fill="#bae67e" />
				<rect height="1.8em" width="20%" x="77.5%" y="25.8em" rx="2" ry="2" fill="#c2d94c" />
			</g>

			<g font-family="sans-serif" font-size="12">
				<text y="29.25em" x="12.5%" fill="333333">syntax.string</text>
				<text y="29.25em" x="37.5%" fill="#000000">#86B300</text>
				<text y="29.25em" x="62.5%" fill="#000000">#BAE67E</text>
				<text y="29.25em" x="87.5%" fill="#000000">#C2D94C</text>
			</g>
		
			<g>
				<rect height="1.8em" width="20%" x="27.5%" y="28.8em" rx="2" ry="2" fill="#4cbf99" />
				<rect height="1.8em" width="20%" x="52.5%" y="28.8em" rx="2" ry="2" fill="#95e6cb" />
				<rect height="1.8em" width="20%" x="77.5%" y="28.8em" rx="2" ry="2" fill="#95e6cb" />
			</g>

			<g font-family="sans-serif" font-size="12">
				<text y="32.5em" x="12.5%" fill="333333">syntax.regexp</text>
				<text y="32.5em" x="37.5%" fill="#000000">#4CBF99</text>
				<text y="32.5em" x="62.5%" fill="#000000">#95E6CB</text>
				<text y="32.5em" x="87.5%" fill="#000000">#95E6CB</text>
			</g>
		
			<g>
				<rect height="1.8em" width="20%" x="27.5%" y="31.8em" rx="2" ry="2" fill="#f07171" />
				<rect height="1.8em" width="20%" x="52.5%" y="31.8em" rx="2" ry="2" fill="#f28779" />
				<rect height="1.8em" width="20%" x="77.5%" y="31.8em" rx="2" ry="2" fill="#f07178" />
			</g>

			<g font-family="sans-serif" font-size="12">
				<text y="35.75em" x="12.5%" fill="333333">syntax.markup</text>
				<text y="35.75em" x="37.5%" fill="#000000">#F07171</text>
				<text y="35.75em" x="62.5%" fill="#000000">#F28779</text>
				<text y="35.75em" x="87.5%" fill="#000000">#F07178</text>
			</g>
		
			<g>
				<rect height="1.8em" width="20%" x="27.5%" y="34.8em" rx="2" ry="2" fill="#fa8d3e" />
				<rect height="1.8em" width="20%" x="52.5%" y="34.8em" rx="2" ry="2" fill="#ffa759" />
				<rect height="1.8em" width="20%" x="77.5%" y="34.8em" rx="2" ry="2" fill="#ff8f40" />
			</g>

			<g font-family="sans-serif" font-size="12">
				<text y="39em" x="12.5%" fill="333333">syntax.keyword</text>
				<text y="39em" x="37.5%" fill="#000000">#FA8D3E</text>
				<text y="39em" x="62.5%" fill="#000000">#FFA759</text>
				<text y="39em" x="87.5%" fill="#000000">#FF8F40</text>
			</g>
		
			<g>
				<rect height="1.8em" width="20%" x="27.5%" y="37.8em" rx="2" ry="2" fill="#e6ba7e" />
				<rect height="1.8em" width="20%" x="52.5%" y="37.8em" rx="2" ry="2" fill="#ffe6b3" />
				<rect height="1.8em" width="20%" x="77.5%" y="37.8em" rx="2" ry="2" fill="#e6b673" />
			</g>

			<g font-family="sans-serif" font-size="12">
				<text y="42.25em" x="12.5%" fill="333333">syntax.special</text>
				<text y="42.25em" x="37.5%" fill="#000000">#E6BA7E</text>
				<text y="42.25em" x="62.5%" fill="#000000">#FFE6B3</text>
				<text y="42.25em" x="87.5%" fill="#000000">#E6B673</text>
			</g>
		
			<g>
				<rect height="1.8em" width="20%" x="27.5%" y="40.8em" rx="2" ry="2" fill="#abb0b6" />
				<rect height="1.8em" width="20%" x="52.5%" y="40.8em" rx="2" ry="2" fill="#5c6773" />
				<rect height="1.8em" width="20%" x="77.5%" y="40.8em" rx="2" ry="2" fill="#626a73" />
			</g>

			<g font-family="sans-serif" font-size="12">
				<text y="45.5em" x="12.5%" fill="333333">syntax.comment</text>
				<text y="45.5em" x="37.5%" fill="#000000">#ABB0B6</text>
				<text y="45.5em" x="62.5%" fill="#ffffff">#5C6773</text>
				<text y="45.5em" x="87.5%" fill="#ffffff">#626A73</text>
			</g>
		
			<g>
				<rect height="1.8em" width="20%" x="27.5%" y="43.8em" rx="2" ry="2" fill="#a37acc" />
				<rect height="1.8em" width="20%" x="52.5%" y="43.8em" rx="2" ry="2" fill="#d4bfff" />
				<rect height="1.8em" width="20%" x="77.5%" y="43.8em" rx="2" ry="2" fill="#ffee99" />
			</g>

			<g font-family="sans-serif" font-size="12">
				<text y="48.75em" x="12.5%" fill="333333">syntax.constant</text>
				<text y="48.75em" x="37.5%" fill="#000000">#A37ACC</text>
				<text y="48.75em" x="62.5%" fill="#000000">#D4BFFF</text>
				<text y="48.75em" x="87.5%" fill="#000000">#FFEE99</text>
			</g>
		
			<g>
				<rect height="1.8em" width="20%" x="27.5%" y="46.8em" rx="2" ry="2" fill="#ed9366" />
				<rect height="1.8em" width="20%" x="52.5%" y="46.8em" rx="2" ry="2" fill="#f29e74" />
				<rect height="1.8em" width="20%" x="77.5%" y="46.8em" rx="2" ry="2" fill="#f29668" />
			</g>

			<g font-family="sans-serif" font-size="12">
				<text y="52em" x="12.5%" fill="333333">syntax.operator</text>
				<text y="52em" x="37.5%" fill="#000000">#ED9366</text>
				<text y="52em" x="62.5%" fill="#000000">#F29E74</text>
				<text y="52em" x="87.5%" fill="#000000">#F29668</text>
			</g>
		
			<g>
				<rect height="1.8em" width="20%" x="27.5%" y="49.8em" rx="2" ry="2" fill="#f51818" />
				<rect height="1.8em" width="20%" x="52.5%" y="49.8em" rx="2" ry="2" fill="#ff3333" />
				<rect height="1.8em" width="20%" x="77.5%" y="49.8em" rx="2" ry="2" fill="#ff3333" />
			</g>

			<g font-family="sans-serif" font-size="12">
				<text y="55.25em" x="12.5%" fill="333333">syntax.error</text>
				<text y="55.25em" x="37.5%" fill="#ffffff">#F51818</text>
				<text y="55.25em" x="62.5%" fill="#000000">#FF3333</text>
				<text y="55.25em" x="87.5%" fill="#000000">#FF3333</text>
			</g>
		
			<g>
				<rect height="1.8em" width="20%" x="27.5%" y="52.8em" rx="2" ry="2" fill="#959da61a" />
				<rect height="1.8em" width="20%" x="52.5%" y="52.8em" rx="2" ry="2" fill="#191e2a" />
				<rect height="1.8em" width="20%" x="77.5%" y="52.8em" rx="2" ry="2" fill="#01060e" />
			</g>

			<g font-family="sans-serif" font-size="12">
				<text y="58.5em" x="12.5%" fill="333333">ui.line</text>
				<text y="58.5em" x="37.5%" fill="#000000">#959DA61A</text>
				<text y="58.5em" x="62.5%" fill="#ffffff">#191E2A</text>
				<text y="58.5em" x="87.5%" fill="#ffffff">#01060E</text>
			</g>
		
			<g>
				<rect height="1.8em" width="20%" x="27.5%" y="55.8em" rx="2" ry="2" fill="#ffffff" />
				<rect height="1.8em" width="20%" x="52.5%" y="55.8em" rx="2" ry="2" fill="#232834" />
				<rect height="1.8em" width="20%" x="77.5%" y="55.8em" rx="2" ry="2" fill="#0d1016" />
			</g>

			<g font-family="sans-serif" font-size="12">
				<text y="61.75em" x="12.5%" fill="333333">ui.panel.bg</text>
				<text y="61.75em" x="37.5%" fill="#000000">#FFFFFF</text>
				<text y="61.75em" x="62.5%" fill="#ffffff">#232834</text>
				<text y="61.75em" x="87.5%" fill="#ffffff">#0D1016</text>
			</g>
		
			<g>
				<rect height="1.8em" width="20%" x="27.5%" y="58.8em" rx="2" ry="2" fill="#56606940" />
				<rect height="1.8em" width="20%" x="52.5%" y="58.8em" rx="2" ry="2" fill="#141925" />
				<rect height="1.8em" width="20%" x="77.5%" y="58.8em" rx="2" ry="2" fill="#00010a" />
			</g>

			<g font-family="sans-serif" font-size="12">
				<text y="65em" x="12.5%" fill="333333">ui.panel.shadow</text>
				<text y="65em" x="37.5%" fill="#ffffff">#56606940</text>
				<text y="65em" x="62.5%" fill="#ffffff">#141925</text>
				<text y="65em" x="87.5%" fill="#ffffff">#00010A</text>
			</g>
		
			<g>
				<rect height="1.8em" width="20%" x="27.5%" y="61.8em" rx="2" ry="2" fill="#f0f0f0" />
				<rect height="1.8em" width="20%" x="52.5%" y="61.8em" rx="2" ry="2" fill="#101521" />
				<rect height="1.8em" width="20%" x="77.5%" y="61.8em" rx="2" ry="2" fill="#000000" />
			</g>

			<g font-family="sans-serif" font-size="12">
				<text y="68.25em" x="12.5%" fill="333333">ui.panel.border</text>
				<text y="68.25em" x="37.5%" fill="#000000">#F0F0F0</text>
				<text y="68.25em" x="62.5%" fill="#ffffff">#101521</text>
				<text y="68.25em" x="87.5%" fill="#ffffff">#000000</text>
			</g>
		
			<g>
				<rect height="1.8em" width="20%" x="27.5%" y="64.8em" rx="2" ry="2" fill="#959da666" />
				<rect height="1.8em" width="20%" x="52.5%" y="64.8em" rx="2" ry="2" fill="#707a8c66" />
				<rect height="1.8em" width="20%" x="77.5%" y="64.8em" rx="2" ry="2" fill="#3d424d99" />
			</g>

			<g font-family="sans-serif" font-size="12">
				<text y="71.5em" x="12.5%" fill="333333">ui.gutter.normal</text>
				<text y="71.5em" x="37.5%" fill="#000000">#959DA666</text>
				<text y="71.5em" x="62.5%" fill="#ffffff">#707A8C66</text>
				<text y="71.5em" x="87.5%" fill="#ffffff">#3D424D99</text>
			</g>
		
			<g>
				<rect height="1.8em" width="20%" x="27.5%" y="67.8em" rx="2" ry="2" fill="#959da6cc" />
				<rect height="1.8em" width="20%" x="52.5%" y="67.8em" rx="2" ry="2" fill="#707a8ccc" />
				<rect height="1.8em" width="20%" x="77.5%" y="67.8em" rx="2" ry="2" fill="#3d424de6" />
			</g>

			<g font-family="sans-serif" font-size="12">
				<text y="74.75em" x="12.5%" fill="333333">ui.gutter.active</text>
				<text y="74.75em" x="37.5%" fill="#000000">#959DA6CC</text>
				<text y="74.75em" x="62.5%" fill="#ffffff">#707A8CCC</text>
				<text y="74.75em" x="87.5%" fill="#ffffff">#3D424DE6</text>
			</g>
		
			<g>
				<rect height="1.8em" width="20%" x="27.5%" y="70.8em" rx="2" ry="2" fill="#e8eef4" />
				<rect height="1.8em" width="20%" x="52.5%" y="70.8em" rx="2" ry="2" fill="#2a3546" />
				<rect height="1.8em" width="20%" x="77.5%" y="70.8em" rx="2" ry="2" fill="#161f2a" />
			</g>

			<g font-family="sans-serif" font-size="12">
				<text y="78em" x="12.5%" fill="333333">ui.selection.bg</text>
				<text y="78em" x="37.5%" fill="#000000">#E8EEF4</text>
				<text y="78em" x="62.5%" fill="#ffffff">#2A3546</text>
				<text y="78em" x="87.5%" fill="#ffffff">#161F2A</text>
			</g>
		
			<g>
				<rect height="1.8em" width="20%" x="27.5%" y="73.8em" rx="2" ry="2" fill="#eff3f6" />
				<rect height="1.8em" width="20%" x="52.5%" y="73.8em" rx="2" ry="2" fill="#262f3e" />
				<rect height="1.8em" width="20%" x="77.5%" y="73.8em" rx="2" ry="2" fill="#121922" />
			</g>

			<g font-family="sans-serif" font-size="12">
				<text y="81.25em" x="12.5%" fill="333333">ui.selection.inactive</text>
				<text y="81.25em" x="37.5%" fill="#000000">#EFF3F6</text>
				<text y="81.25em" x="62.5%" fill="#ffffff">#262F3E</text>
				<text y="81.25em" x="87.5%" fill="#ffffff">#121922</text>
			</g>
		
			<g>
				<rect height="1.8em" width="20%" x="27.5%" y="76.8em" rx="2" ry="2" fill="#dee8f1" />
				<rect height="1.8em" width="20%" x="52.5%" y="76.8em" rx="2" ry="2" fill="#313e52" />
				<rect height="1.8em" width="20%" x="77.5%" y="76.8em" rx="2" ry="2" fill="#1d2936" />
			</g>

			<g font-family="sans-serif" font-size="12">
				<text y="84.5em" x="12.5%" fill="333333">ui.selection.border</text>
				<text y="84.5em" x="37.5%" fill="#000000">#DEE8F1</text>
				<text y="84.5em" x="62.5%" fill="#ffffff">#313E52</text>
				<text y="84.5em" x="87.5%" fill="#ffffff">#1D2936</text>
			</g>
		
			<g>
				<rect height="1.8em" width="20%" x="27.5%" y="79.8em" rx="2" ry="2" fill="#959da6b3" />
				<rect height="1.8em" width="20%" x="52.5%" y="79.8em" rx="2" ry="2" fill="#707a8cb3" />
				<rect height="1.8em" width="20%" x="77.5%" y="79.8em" rx="2" ry="2" fill="#3d424db3" />
			</g>

			<g font-family="sans-serif" font-size="12">
				<text y="87.75em" x="12.5%" fill="333333">ui.guide.active</text>
				<text y="87.75em" x="37.5%" fill="#000000">#959DA6B3</text>
				<text y="87.75em" x="62.5%" fill="#ffffff">#707A8CB3</text>
				<text y="87.75em" x="87.5%" fill="#ffffff">#3D424DB3</text>
			</g>
		
			<g>
				<rect height="1.8em" width="20%" x="27.5%" y="82.8em" rx="2" ry="2" fill="#959da64d" />
				<rect height="1.8em" width="20%" x="52.5%" y="82.8em" rx="2" ry="2" fill="#707a8c4d" />
				<rect height="1.8em" width="20%" x="77.5%" y="82.8em" rx="2" ry="2" fill="#3d424d66" />
			</g>

			<g font-family="sans-serif" font-size="12">
				<text y="91em" x="12.5%" fill="333333">ui.guide.normal</text>
				<text y="91em" x="37.5%" fill="#000000">#959DA64D</text>
				<text y="91em" x="62.5%" fill="#ffffff">#707A8C4D</text>
				<text y="91em" x="87.5%" fill="#ffffff">#3D424D66</text>
			</g>
		
			<g>
				<rect height="1.8em" width="20%" x="27.5%" y="85.8em" rx="2" ry="2" fill="#99bf4d" />
				<rect height="1.8em" width="20%" x="52.5%" y="85.8em" rx="2" ry="2" fill="#a6cc70" />
				<rect height="1.8em" width="20%" x="77.5%" y="85.8em" rx="2" ry="2" fill="#91b362" />
			</g>

			<g font-family="sans-serif" font-size="12">
				<text y="94.25em" x="12.5%" fill="333333">vcs.added</text>
				<text y="94.25em" x="37.5%" fill="#000000">#99BF4D</text>
				<text y="94.25em" x="62.5%" fill="#000000">#A6CC70</text>
				<text y="94.25em" x="87.5%" fill="#000000">#91B362</text>
			</g>
		
			<g>
				<rect height="1.8em" width="20%" x="27.5%" y="88.8em" rx="2" ry="2" fill="#709ecc" />
				<rect height="1.8em" width="20%" x="52.5%" y="88.8em" rx="2" ry="2" fill="#77a8d9" />
				<rect height="1.8em" width="20%" x="77.5%" y="88.8em" rx="2" ry="2" fill="#6994bf" />
			</g>

			<g font-family="sans-serif" font-size="12">
				<text y="97.5em" x="12.5%" fill="333333">vcs.modified</text>
				<text y="97.5em" x="37.5%" fill="#000000">#709ECC</text>
				<text y="97.5em" x="62.5%" fill="#000000">#77A8D9</text>
				<text y="97.5em" x="87.5%" fill="#000000">#6994BF</text>
			</g>
		
			<g>
				<rect height="1.8em" width="20%" x="27.5%" y="91.8em" rx="2" ry="2" fill="#f27983" />
				<rect height="1.8em" width="20%" x="52.5%" y="91.8em" rx="2" ry="2" fill="#f27983" />
				<rect height="1.8em" width="20%" x="77.5%" y="91.8em" rx="2" ry="2" fill="#d96c75" />
			</g>

			<g font-family="sans-serif" font-size="12">
				<text y="100.75em" x="12.5%" fill="333333">vcs.removed</text>
				<text y="100.75em" x="37.5%" fill="#000000">#F27983</text>
				<text y="100.75em" x="62.5%" fill="#000000">#F27983</text>
				<text y="100.75em" x="87.5%" fill="#000000">#D96C75</text>
			</g>
		

</svg>
